<svg width="200" height="200" viewBox="0 0 200 200" fill="none" xmlns="http://www.w3.org/2000/svg">
<style>
    .organic-blob {
		animation: morph-complex 10s ease-in-out infinite;
		transform-origin: center;
    }

    @keyframes morph-complex {
		0%, 100% {
			d: path("M39,-46.5C53.5,-43.1,70.3,-35.7,75.5,-23.6C80.8,-11.5,74.5,5.3,68.9,22.3C63.3,39.3,58.3,56.4,47,68.7C35.6,81,17.8,88.4,-0.8,89.5C-19.3,90.5,-38.6,85.2,-46.7,71.8C-54.8,58.4,-51.6,37.1,-54.6,19.7C-57.6,2.3,-66.7,-11.2,-67.7,-26.3C-68.8,-41.5,-61.7,-58.3,-49,-62.3C-36.4,-66.3,-18.2,-57.5,-3,-53.4C12.2,-49.3,24.5,-49.9,39,-46.5Z");
		}
		33% {
			d: path("M35.5,-43.3C49.9,-38.3,68.1,-33.2,75.2,-22C82.2,-10.7,78,6.6,69,18.8C60.1,30.9,46.3,37.9,34,45.9C21.7,53.9,10.9,63.1,0.8,62C-9.3,60.9,-18.5,49.5,-26.5,40.1C-34.5,30.7,-41.3,23.2,-43.5,14.6C-45.7,6,-43.2,-3.6,-44.9,-19.6C-46.6,-35.5,-52.4,-57.8,-45.6,-65.2C-38.8,-72.6,-19.4,-65.1,-4.4,-59C10.5,-52.9,21.1,-48.2,35.5,-43.3Z");
		}
		66% {
			d: path("M44.6,-61C53.3,-55,52.9,-36,54.7,-20.2C56.6,-4.4,60.6,8.3,58.6,20.5C56.7,32.6,48.6,44.3,37.8,47.8C27.1,51.3,13.5,46.6,1.4,44.7C-10.7,42.7,-21.4,43.4,-37,41.5C-52.7,39.6,-73.4,35.1,-75.1,25.4C-76.8,15.8,-59.5,1.1,-49.2,-11.5C-38.9,-24,-35.7,-34.3,-28.6,-41C-21.6,-47.6,-10.8,-50.5,3.5,-55.4C17.9,-60.3,35.8,-67.1,44.6,-61Z");
		}
    }
</style>
<path class="organic-blob" d="M31.6,-38.8C42.7,-35.3,54.7,-28.5,65.3,-16.4C76,-4.2,85.2,13.2,81.5,27.1C77.9,41,61.3,51.3,45.6,57.7C29.9,64.1,14.9,66.5,-0.7,67.5C-16.3,68.4,-32.6,67.8,-40.6,58.9C-48.6,50.1,-48.4,32.8,-50.1,18.4C-51.8,4,-55.5,-7.6,-55.2,-20.8C-54.8,-34,-50.4,-48.7,-40.6,-52.5C-30.7,-56.3,-15.3,-49.3,-2.6,-45.8C10.2,-42.2,20.4,-42.2,31.6,-38.8Z" transform="translate(100 100)" fill="#CCECC0"/>
</svg>
