<?xml version="1.0" encoding="UTF-8"?>
<svg id="Capa_1" xmlns="http://www.w3.org/2000/svg" version="1.1" viewBox="0 0 40 40">
  <!-- Generator: Adobe Illustrator 30.3.0, SVG Export Plug-In . SVG Version: 2.1.3 Build 182)  -->
  <defs>
    <style>
      .st0 {
        fill: #182c17;
      }
    </style>
  </defs>
  <path class="st0" d="M18.1,32.9c-2,0-3.5,1.6-3.5,3.5s1.6,3.5,3.5,3.5,3.5-1.6,3.5-3.5-1.6-3.5-3.5-3.5ZM18.1,37.9c-.8,0-1.5-.7-1.5-1.5s.7-1.5,1.5-1.5,1.5.7,1.5,1.5-.7,1.5-1.5,1.5Z"/>
  <path class="st0" d="M28.6,32.9c-2,0-3.5,1.6-3.5,3.5s1.6,3.5,3.5,3.5,3.5-1.6,3.5-3.5-1.6-3.5-3.5-3.5ZM28.6,37.9c-.8,0-1.5-.7-1.5-1.5s.7-1.5,1.5-1.5,1.5.7,1.5,1.5-.7,1.5-1.5,1.5Z"/>
  <path class="st0" d="M35.5,20.3c-.6,0-1,.5-1,1v6.7H10.7l-4.7-13.1c-.1-.4-.5-.7-1-.7H1c-.6,0-1,.5-1,1s.5,1,1,1h3.3l7.2,20.3c.2.4.6.7,1,.7s.2,0,.3,0c.5-.2.8-.8.6-1.3l-2.1-5.9h23.1v1.1l-1.8,1.7c-.4.4-.4,1.1,0,1.5.2.2.5.3.7.3s.5-.1.7-.3l2.1-2c.2-.2.3-.5.3-.7v-10.2c0-.6-.5-1-1-1h0Z"/>
  <path class="st0" d="M28.8,10.6V0c-2.8,0-5,2.2-5,5v10.6c2.8,0,5-2.2,5-5Z"/>
  <path class="st0" d="M20.8,15.6h1.6v-1.6c0-3-2.5-5.4-5.5-5.4h-1.6v1.6c0,3,2.5,5.4,5.5,5.4Z"/>
  <path class="st0" d="M23,17c-4.8,0-8.7,3.8-8.7,8.6h17.3c0-4.7-3.9-8.6-8.7-8.6Z"/>
</svg>