<svg xmlns="http://www.w3.org/2000/svg" width="228" height="80" viewBox="0 0 228 80" fill="none">
<style>
@keyframes swing-footer-1 {
  50% {
    transform: rotate(15deg);
  }
}

@keyframes swing-footer-2 {
  0%, 100% {
    transform: rotate(0);
  }

  50% {
    transform: rotate(-12deg);
  }
}
</style>
<path d="M36.2244 65.6797C32.3173 65.6797 29.1388 68.829 29.1388 72.7002C29.1388 76.5715 32.3173 79.7208 36.2244 79.7208C40.1314 79.7208 43.3099 76.5715 43.3099 72.7002C43.3099 68.829 40.1314 65.6797 36.2244 65.6797ZM36.2244 75.6065C34.6049 75.6065 33.2912 74.3011 33.2912 72.7002C33.2912 71.0994 34.6087 69.794 36.2244 69.794C37.84 69.794 39.1575 71.0994 39.1575 72.7002C39.1575 74.3011 37.84 75.6065 36.2244 75.6065Z" fill="#F3EFEB"/>
<path d="M57.1491 65.6797C53.242 65.6797 50.0635 68.829 50.0635 72.7002C50.0635 76.5715 53.242 79.7208 57.1491 79.7208C61.0561 79.7208 64.2346 76.5715 64.2346 72.7002C64.2346 68.829 61.0561 65.6797 57.1491 65.6797ZM57.1491 75.6065C55.5296 75.6065 54.2159 74.3011 54.2159 72.7002C54.2159 71.0994 55.5334 69.794 57.1491 69.794C58.7647 69.794 60.0822 71.0994 60.0822 72.7002C60.0822 74.3011 58.7647 75.6065 57.1491 75.6065Z" fill="#F3EFEB"/>
<path d="M71.0634 40.3803C69.9158 40.3803 68.9871 41.3004 68.9871 42.4375V55.7492H21.3926L12.0836 29.5895C11.7892 28.7666 11.0077 28.2168 10.1244 28.2168H2.07622C0.928637 28.2168 0 29.1369 0 30.274C0 31.411 0.928637 32.3311 2.07622 32.3311H8.65595L23.1329 73.007C23.4349 73.8523 24.2352 74.3797 25.0921 74.3797C25.3223 74.3797 25.5526 74.3423 25.7829 74.26C26.8625 73.8823 27.4325 72.7078 27.0513 71.6343L22.8611 59.8561H68.9909V62.0442L65.4802 65.5227C64.6686 66.3268 64.6686 67.6285 65.4802 68.4326C65.8841 68.8328 66.4164 69.0348 66.9487 69.0348C67.4809 69.0348 68.0132 68.8328 68.4171 68.4326L72.5356 64.3519C72.9244 63.9667 73.1433 63.4431 73.1433 62.897V42.43C73.1433 41.2929 72.2147 40.3728 71.0671 40.3728L71.0634 40.3803Z" fill="#F3EFEB"/>
<path style="animation: 2s ease-in-out infinite swing-footer-1; transform-origin: 46px 32px;" d="M57.5906 21.1028V0C52.0339 0 47.5266 4.46593 47.5266 9.97167V31.0745C53.0833 31.0745 57.5906 26.6086 57.5906 21.1028Z" fill="#F3EFEB"/>
<path style="animation: 2s ease-in-out .15s infinite swing-footer-2; transform-origin: 46px 32px;" d="M41.6565 31.0746H44.9369V27.8242C44.9369 21.8061 40.0144 16.9287 33.9405 16.9287H30.66V20.179C30.66 26.1972 35.5826 31.0746 41.6565 31.0746Z" fill="#F3EFEB"/>
<path d="M46.0014 33.8574C36.4357 33.8574 28.6782 41.5438 28.6782 51.0217H63.3247C63.3247 41.5438 55.5672 33.8574 46.0014 33.8574Z" fill="#F3EFEB"/>
<path d="M223.79 79.9991C221.999 79.9991 220.491 79.6866 219.267 79.0616C218.042 78.4366 217.132 77.514 216.535 76.2937C215.938 75.0734 215.639 73.5853 215.639 71.8293V61.2934H212.952C212.355 61.2934 211.892 61.1446 211.563 60.8469C211.235 60.5196 211.071 60.088 211.071 59.5523C211.071 58.9868 211.235 58.5552 211.563 58.2576C211.892 57.96 212.355 57.8112 212.952 57.8112H215.639V53.2129C215.639 52.4688 215.833 51.9033 216.221 51.5164C216.639 51.1295 217.206 50.936 217.923 50.936C218.64 50.936 219.192 51.1295 219.58 51.5164C219.968 51.9033 220.162 52.4688 220.162 53.2129V57.8112H225.402C225.999 57.8112 226.462 57.96 226.791 58.2576C227.119 58.5552 227.283 58.9868 227.283 59.5523C227.283 60.088 227.119 60.5196 226.791 60.8469C226.462 61.1446 225.999 61.2934 225.402 61.2934H220.162V71.4722C220.162 73.0496 220.491 74.2401 221.148 75.0437C221.834 75.8473 222.939 76.249 224.462 76.249C224.999 76.249 225.462 76.2044 225.85 76.1151C226.268 75.9961 226.612 75.9217 226.88 75.8919C227.209 75.8919 227.477 76.0109 227.686 76.249C227.895 76.4574 228 76.8741 228 77.4991C228 77.9455 227.91 78.3622 227.731 78.7491C227.582 79.136 227.298 79.389 226.88 79.508C226.522 79.6271 226.029 79.7313 225.402 79.8205C224.805 79.9396 224.268 79.9991 223.79 79.9991Z" fill="#F3EFEB"/>
<path d="M200.719 79.9999C198.331 79.9999 196.271 79.5535 194.539 78.6606C192.837 77.7379 191.508 76.4433 190.553 74.7766C189.627 73.0801 189.165 71.0711 189.165 68.7497C189.165 66.4877 189.627 64.5085 190.553 62.8121C191.478 61.1156 192.747 59.7912 194.36 58.8388C195.972 57.8864 197.808 57.4102 199.868 57.4102C201.391 57.4102 202.75 57.6631 203.944 58.1691C205.138 58.6453 206.153 59.3596 206.989 60.312C207.855 61.2346 208.497 62.3656 208.915 63.7049C209.363 65.0442 209.587 66.5472 209.587 68.2139C209.587 68.7199 209.438 69.1068 209.139 69.3747C208.841 69.6128 208.393 69.7318 207.796 69.7318H192.747V66.9639H206.542L205.78 67.5889C205.78 66.1008 205.556 64.8359 205.108 63.7942C204.69 62.7525 204.048 61.9638 203.183 61.4281C202.347 60.8626 201.302 60.5799 200.048 60.5799C198.644 60.5799 197.45 60.9073 196.465 61.562C195.509 62.2168 194.778 63.1246 194.27 64.2853C193.763 65.446 193.509 66.8002 193.509 68.3479V68.6157C193.509 71.2348 194.121 73.214 195.345 74.5534C196.599 75.8629 198.405 76.5177 200.764 76.5177C201.66 76.5177 202.6 76.3986 203.586 76.1605C204.601 75.9224 205.556 75.5206 206.452 74.9552C206.96 74.6575 207.407 74.5236 207.796 74.5534C208.214 74.5831 208.542 74.7171 208.781 74.9552C209.05 75.1933 209.214 75.4909 209.273 75.848C209.333 76.2052 209.273 76.5772 209.094 76.9641C208.915 77.3213 208.602 77.6487 208.154 77.9463C207.139 78.6308 205.959 79.1517 204.616 79.5088C203.272 79.8362 201.973 79.9999 200.719 79.9999Z" fill="#F3EFEB"/>
<path d="M170.091 79.9099C169.374 79.9099 168.822 79.7164 168.434 79.3295C168.046 78.9129 167.852 78.3474 167.852 77.6331V50.0879C167.852 49.3438 168.046 48.7783 168.434 48.3914C168.822 48.0045 169.374 47.811 170.091 47.811C170.808 47.811 171.36 48.0045 171.748 48.3914C172.166 48.7783 172.375 49.3438 172.375 50.0879V67.3204H172.465L180.84 59.0166C181.317 58.5404 181.75 58.1684 182.138 57.9005C182.527 57.6327 183.034 57.4987 183.661 57.4987C184.288 57.4987 184.766 57.6624 185.094 57.9898C185.423 58.3172 185.587 58.719 185.587 59.1952C185.587 59.6416 185.363 60.103 184.915 60.5792L176.048 69.3293V67.2311L185.721 76.8295C186.199 77.3057 186.423 77.7819 186.393 78.2581C186.363 78.7343 186.169 79.1361 185.811 79.4635C185.453 79.7611 185.005 79.9099 184.467 79.9099C183.781 79.9099 183.228 79.776 182.81 79.5081C182.422 79.2402 181.959 78.8385 181.422 78.3027L172.465 69.6418H172.375V77.6331C172.375 79.151 171.614 79.9099 170.091 79.9099Z" fill="#F3EFEB"/>
<path d="M153.428 79.9095C152.682 79.9095 152.115 79.7161 151.727 79.3291C151.338 78.9125 151.144 78.347 151.144 77.6327V59.7752C151.144 59.0311 151.338 58.4656 151.727 58.0787C152.115 57.6918 152.652 57.4983 153.339 57.4983C154.056 57.4983 154.593 57.6918 154.951 58.0787C155.339 58.4656 155.533 59.0311 155.533 59.7752V63.0342H155.086C155.563 61.2484 156.444 59.8942 157.728 58.9716C159.012 58.0489 160.654 57.5132 162.654 57.3644C163.192 57.3346 163.61 57.4686 163.908 57.7662C164.237 58.0638 164.416 58.5251 164.446 59.1502C164.506 59.7752 164.371 60.2811 164.043 60.668C163.714 61.0252 163.207 61.2335 162.52 61.2931L161.669 61.3823C159.728 61.5609 158.25 62.1711 157.235 63.2127C156.22 64.2544 155.713 65.683 155.713 67.4985V77.6327C155.713 78.347 155.519 78.9125 155.13 79.3291C154.772 79.7161 154.205 79.9095 153.428 79.9095Z" fill="#F3EFEB"/>
<path d="M134.076 79.9999C132.553 79.9999 131.18 79.7023 129.956 79.107C128.761 78.5118 127.821 77.7082 127.134 76.6963C126.447 75.6843 126.104 74.5385 126.104 73.2587C126.104 71.6515 126.507 70.3866 127.313 69.464C128.149 68.5116 129.508 67.8419 131.389 67.455C133.3 67.0383 135.867 66.83 139.092 66.83H141.197V69.5979H139.137C136.987 69.5979 135.285 69.7021 134.031 69.9104C132.777 70.1187 131.882 70.4759 131.344 70.9819C130.837 71.4581 130.583 72.1277 130.583 72.9908C130.583 74.1218 130.971 75.0444 131.747 75.7587C132.523 76.4433 133.598 76.7855 134.972 76.7855C136.076 76.7855 137.047 76.5326 137.883 76.0266C138.719 75.4909 139.376 74.7766 139.853 73.8837C140.361 72.9908 140.615 71.964 140.615 70.8033V65.6693C140.615 63.9728 140.257 62.7525 139.54 62.0085C138.823 61.2644 137.644 60.8924 136.002 60.8924C135.046 60.8924 134.046 61.0114 133.001 61.2495C131.986 61.4876 130.926 61.8894 129.821 62.4549C129.314 62.693 128.881 62.7674 128.523 62.6781C128.164 62.5888 127.881 62.3954 127.672 62.0977C127.463 61.7704 127.343 61.4281 127.313 61.0709C127.313 60.684 127.403 60.312 127.582 59.9549C127.791 59.5977 128.134 59.3298 128.612 59.1513C129.926 58.5262 131.225 58.0798 132.509 57.8119C133.792 57.5441 135.002 57.4102 136.136 57.4102C138.137 57.4102 139.779 57.7227 141.063 58.3477C142.376 58.9727 143.347 59.9251 143.974 61.2049C144.601 62.4847 144.914 64.1365 144.914 66.1603V77.6338C144.914 78.3481 144.735 78.9136 144.377 79.3302C144.019 79.7172 143.496 79.9106 142.809 79.9106C142.152 79.9106 141.63 79.7172 141.242 79.3302C140.854 78.9136 140.66 78.3481 140.66 77.6338V74.7319H141.063C140.824 75.8331 140.376 76.7856 139.719 77.5891C139.092 78.363 138.301 78.9582 137.345 79.3749C136.39 79.7916 135.3 79.9999 134.076 79.9999Z" fill="#F3EFEB"/>
<path d="M91.2459 79.9099C90.5592 79.9099 90.0218 79.7164 89.6336 79.3295C89.2753 78.9426 89.0962 78.4069 89.0962 77.7224V49.9986C89.0962 49.2843 89.2903 48.7486 89.6784 48.3914C90.0666 48.0045 90.5891 47.811 91.2459 47.811C91.8729 47.811 92.3506 47.9301 92.6791 48.1682C93.0374 48.3765 93.3658 48.7634 93.6644 49.3289L105.398 71.1597H104.01L115.699 49.3289C115.998 48.7634 116.311 48.3765 116.64 48.1682C116.968 47.9301 117.446 47.811 118.073 47.811C118.73 47.811 119.237 48.0045 119.595 48.3914C119.954 48.7486 120.133 49.2843 120.133 49.9986V77.7224C120.133 78.4069 119.954 78.9426 119.595 79.3295C119.267 79.7164 118.759 79.9099 118.073 79.9099C117.386 79.9099 116.864 79.7164 116.505 79.3295C116.147 78.9426 115.968 78.4069 115.968 77.7224V54.6862H116.953L106.563 73.8384C106.324 74.2848 106.07 74.6122 105.801 74.8205C105.533 75.0289 105.159 75.133 104.682 75.133C104.204 75.133 103.816 75.0289 103.517 74.8205C103.219 74.5824 102.95 74.255 102.711 73.8384L92.2312 54.6415H93.3061V77.7224C93.3061 78.4069 93.1269 78.9426 92.7686 79.3295C92.4402 79.7164 91.9326 79.9099 91.2459 79.9099Z" fill="#F3EFEB"/>
<path d="M147.537 41.8234C145.089 41.8234 142.954 41.362 141.133 40.4394C139.311 39.5168 137.893 38.1923 136.878 36.4661C135.863 34.7399 135.355 32.7012 135.355 30.3499C135.355 28.5642 135.639 26.9719 136.206 25.573C136.773 24.1444 137.595 22.939 138.669 21.9569C139.744 20.945 141.028 20.186 142.521 19.6801C144.014 19.1443 145.686 18.8765 147.537 18.8765C149.985 18.8765 152.12 19.3378 153.941 20.2604C155.763 21.1831 157.166 22.5075 158.151 24.2337C159.166 25.9302 159.674 27.9689 159.674 30.3499C159.674 32.1059 159.39 33.6982 158.823 35.1268C158.256 36.5554 157.435 37.7757 156.36 38.7876C155.315 39.7697 154.031 40.5287 152.508 41.0644C151.015 41.5704 149.358 41.8234 147.537 41.8234ZM147.537 35.975C148.343 35.975 149.06 35.7816 149.687 35.3947C150.314 34.978 150.791 34.3679 151.12 33.5643C151.478 32.7309 151.657 31.6595 151.657 30.3499C151.657 28.3558 151.269 26.9272 150.493 26.0641C149.717 25.1712 148.731 24.7248 147.537 24.7248C146.731 24.7248 146.014 24.9183 145.387 25.3052C144.76 25.6921 144.268 26.3022 143.909 27.1356C143.551 27.9391 143.372 29.0106 143.372 30.3499C143.372 32.3142 143.76 33.7428 144.536 34.6357C145.313 35.5286 146.313 35.975 147.537 35.975Z" fill="#F3EFEB"/>
<path d="M126.371 41.8234C123.893 41.8234 121.728 41.362 119.877 40.4394C118.055 39.5168 116.637 38.1923 115.622 36.4661C114.607 34.7101 114.099 32.6565 114.099 30.3053C114.099 28.5195 114.383 26.9272 114.95 25.5284C115.518 24.0998 116.339 22.8944 117.414 21.9122C118.518 20.9301 119.817 20.186 121.31 19.6801C122.833 19.1443 124.52 18.8765 126.371 18.8765C127.237 18.8765 128.147 18.9658 129.103 19.1443C130.058 19.2931 131.043 19.5908 132.059 20.0372C132.775 20.3051 133.268 20.7217 133.537 21.2872C133.835 21.823 133.955 22.4033 133.895 23.0283C133.865 23.6533 133.686 24.2188 133.357 24.7248C133.059 25.2308 132.626 25.573 132.059 25.7516C131.521 25.9302 130.909 25.8558 130.222 25.5284C129.745 25.2903 129.237 25.1266 128.7 25.0373C128.192 24.9183 127.699 24.8587 127.222 24.8587C126.416 24.8587 125.699 24.9778 125.072 25.2159C124.475 25.454 123.967 25.8111 123.549 26.2873C123.131 26.7338 122.803 27.2993 122.564 27.9838C122.355 28.6683 122.25 29.4422 122.25 30.3053C122.25 32.0315 122.683 33.3857 123.549 34.3679C124.415 35.35 125.639 35.8411 127.222 35.8411C127.699 35.8411 128.192 35.7965 128.7 35.7072C129.207 35.5881 129.715 35.4095 130.222 35.1714C130.909 34.8441 131.521 34.7845 132.059 34.9929C132.596 35.1714 133.029 35.5137 133.357 36.0197C133.686 36.5256 133.865 37.0911 133.895 37.7161C133.925 38.3114 133.79 38.8918 133.492 39.4572C133.193 39.993 132.686 40.3948 131.969 40.6626C130.984 41.1091 130.013 41.4067 129.058 41.5555C128.132 41.7341 127.237 41.8234 126.371 41.8234Z" fill="#F3EFEB"/>
<path d="M92.4999 41.3318C91.0966 41.3318 90.0217 40.9746 89.2753 40.2603C88.5587 39.5163 88.2004 38.4597 88.2004 37.0906V14.0991C88.2004 12.73 88.5587 11.6883 89.2753 10.974C90.0217 10.2299 91.0966 9.85791 92.4999 9.85791H107.682C108.757 9.85791 109.563 10.1258 110.101 10.6615C110.638 11.1972 110.907 11.971 110.907 12.983C110.907 14.0247 110.638 14.8282 110.101 15.3937C109.563 15.9295 108.757 16.1973 107.682 16.1973H96.0828V22.1796H106.697C107.742 22.1796 108.533 22.4475 109.071 22.9832C109.638 23.5189 109.922 24.3076 109.922 25.3493C109.922 26.391 109.638 27.1797 109.071 27.7154C108.533 28.2511 107.742 28.519 106.697 28.519H96.0828V34.9924H107.682C108.757 34.9924 109.563 35.2751 110.101 35.8406C110.638 36.3763 110.907 37.1501 110.907 38.1621C110.907 39.2037 110.638 39.9925 110.101 40.5282C109.563 41.0639 108.757 41.3318 107.682 41.3318H92.4999Z" fill="#F3EFEB"/>
</svg>