<svg width="114" height="40" viewBox="0 0 114 40" fill="none" xmlns="http://www.w3.org/2000/svg">
<path d="M111.895 39.9996C110.999 39.9996 110.245 39.8434 109.633 39.5309C109.021 39.2184 108.566 38.757 108.267 38.1469C107.969 37.5368 107.819 36.7927 107.819 35.9147V30.6468H106.476C106.177 30.6468 105.946 30.5723 105.782 30.4235C105.618 30.2598 105.535 30.0441 105.535 29.7762C105.535 29.4935 105.618 29.2777 105.782 29.1289C105.946 28.9801 106.177 28.9056 106.476 28.9056H107.819V26.6065C107.819 26.2345 107.917 25.9517 108.111 25.7583C108.32 25.5648 108.603 25.4681 108.962 25.4681C109.32 25.4681 109.596 25.5648 109.79 25.7583C109.984 25.9517 110.081 26.2345 110.081 26.6065V28.9056H112.701C113 28.9056 113.231 28.9801 113.395 29.1289C113.56 29.2777 113.642 29.4935 113.642 29.7762C113.642 30.0441 113.56 30.2598 113.395 30.4235C113.231 30.5723 113 30.6468 112.701 30.6468H110.081V35.7361C110.081 36.5248 110.245 37.1201 110.574 37.5219C110.917 37.9237 111.47 38.1246 112.231 38.1246C112.5 38.1246 112.731 38.1023 112.925 38.0576C113.134 37.9981 113.306 37.9609 113.44 37.946C113.604 37.946 113.739 38.0055 113.843 38.1246C113.948 38.2288 114 38.4371 114 38.7496C114 38.9728 113.955 39.1812 113.866 39.3746C113.791 39.5681 113.649 39.6946 113.44 39.7541C113.261 39.8136 113.015 39.8657 112.701 39.9103C112.403 39.9699 112.134 39.9996 111.895 39.9996Z" fill="#182C17"/>
<path d="M100.36 40C99.1654 40 98.1353 39.7768 97.2694 39.3304C96.4185 38.869 95.7542 38.2217 95.2765 37.3884C94.8137 36.5401 94.5823 35.5356 94.5823 34.3749C94.5823 33.2439 94.8137 32.2543 95.2765 31.4061C95.7392 30.5579 96.3737 29.8956 97.1799 29.4194C97.986 28.9432 98.9041 28.7051 99.9342 28.7051C100.696 28.7051 101.375 28.8316 101.972 29.0846C102.569 29.3227 103.077 29.6799 103.495 30.1561C103.928 30.6174 104.249 31.1829 104.458 31.8525C104.682 32.5222 104.793 33.2737 104.793 34.107C104.793 34.36 104.719 34.5535 104.57 34.6874C104.42 34.8065 104.196 34.866 103.898 34.866H96.3737V33.482H103.271L102.89 33.7945C102.89 33.0505 102.778 32.418 102.554 31.8972C102.345 31.3763 102.024 30.982 101.591 30.7141C101.173 30.4314 100.651 30.29 100.024 30.29C99.3221 30.29 98.725 30.4537 98.2323 30.7811C97.7546 31.1085 97.3889 31.5623 97.1351 32.1427C96.8813 32.7231 96.7544 33.4002 96.7544 34.174V34.3079C96.7544 35.6175 97.0604 36.6071 97.6725 37.2767C98.2995 37.9315 99.2027 38.2589 100.382 38.2589C100.83 38.2589 101.3 38.1994 101.793 38.0803C102.3 37.9613 102.778 37.7604 103.226 37.4776C103.48 37.3288 103.704 37.2619 103.898 37.2767C104.107 37.2916 104.271 37.3586 104.39 37.4776C104.525 37.5967 104.607 37.7455 104.637 37.9241C104.667 38.1026 104.637 38.2887 104.547 38.4821C104.458 38.6607 104.301 38.8244 104.077 38.9732C103.569 39.3155 102.98 39.5759 102.308 39.7545C101.636 39.9182 100.987 40 100.36 40Z" fill="#182C17"/>
<path d="M85.0454 39.955C84.6871 39.955 84.411 39.8583 84.2169 39.6648C84.0228 39.4565 83.9258 39.1737 83.9258 38.8166V25.044C83.9258 24.672 84.0228 24.3892 84.2169 24.1958C84.411 24.0023 84.6871 23.9056 85.0454 23.9056C85.4037 23.9056 85.6799 24.0023 85.874 24.1958C86.083 24.3892 86.1875 24.672 86.1875 25.044V33.6602H86.2323L90.4198 29.5084C90.6586 29.2703 90.8751 29.0843 91.0692 28.9503C91.2632 28.8164 91.517 28.7494 91.8305 28.7494C92.144 28.7494 92.3829 28.8313 92.5471 28.995C92.7113 29.1587 92.7934 29.3596 92.7934 29.5977C92.7934 29.8209 92.6815 30.0515 92.4575 30.2896L88.0237 34.6647V33.6156L92.8606 38.4148C93.0995 38.6529 93.2114 38.891 93.1965 39.1291C93.1816 39.3672 93.0845 39.5681 92.9054 39.7318C92.7262 39.8806 92.5023 39.955 92.2336 39.955C91.8902 39.955 91.6141 39.888 91.405 39.7541C91.211 39.6202 90.9796 39.4193 90.7109 39.1514L86.2323 34.821H86.1875V38.8166C86.1875 39.5755 85.8068 39.955 85.0454 39.955Z" fill="#182C17"/>
<path d="M76.7143 39.9548C76.3411 39.9548 76.0574 39.8581 75.8634 39.6646C75.6693 39.4563 75.5723 39.1735 75.5723 38.8164V29.8876C75.5723 29.5156 75.6693 29.2329 75.8634 29.0394C76.0574 28.846 76.3262 28.7492 76.6695 28.7492C77.0278 28.7492 77.2965 28.846 77.4757 29.0394C77.6697 29.2329 77.7668 29.5156 77.7668 29.8876V31.5171H77.5429C77.7817 30.6243 78.2221 29.9472 78.864 29.4859C79.506 29.0245 80.3271 28.7567 81.3273 28.6823C81.596 28.6674 81.805 28.7343 81.9543 28.8832C82.1185 29.032 82.2081 29.2626 82.223 29.5751C82.2529 29.8876 82.1857 30.1406 82.0215 30.3341C81.8572 30.5127 81.6035 30.6168 81.2601 30.6466L80.8346 30.6912C79.8643 30.7805 79.1253 31.0856 78.6177 31.6064C78.1101 32.1273 77.8564 32.8416 77.8564 33.7493V38.8164C77.8564 39.1735 77.7593 39.4563 77.5652 39.6646C77.3861 39.8581 77.1025 39.9548 76.7143 39.9548Z" fill="#182C17"/>
<path d="M67.038 40C66.2766 40 65.5899 39.8512 64.9778 39.5536C64.3807 39.2559 63.9104 38.8542 63.567 38.3482C63.2237 37.8422 63.052 37.2693 63.052 36.6294C63.052 35.8258 63.2535 35.1934 63.6566 34.732C64.0746 34.2558 64.7539 33.921 65.6944 33.7276C66.6498 33.5192 67.9337 33.4151 69.546 33.4151H70.5984V34.799H69.5684C68.4935 34.799 67.6426 34.8511 67.0156 34.9553C66.3886 35.0594 65.9407 35.238 65.672 35.491C65.4182 35.7291 65.2913 36.0639 65.2913 36.4955C65.2913 37.061 65.4854 37.5223 65.8735 37.8794C66.2617 38.2217 66.7991 38.3928 67.4858 38.3928C68.0382 38.3928 68.5234 38.2663 68.9414 38.0134C69.3594 37.7455 69.6878 37.3884 69.9267 36.9419C70.1804 36.4955 70.3073 35.9821 70.3073 35.4017V32.8347C70.3073 31.9865 70.1282 31.3763 69.7699 31.0043C69.4116 30.6323 68.8219 30.4462 68.0009 30.4462C67.5231 30.4462 67.023 30.5058 66.5005 30.6248C65.993 30.7439 65.463 30.9448 64.9106 31.2275C64.6568 31.3466 64.4404 31.3838 64.2612 31.3391C64.0821 31.2945 63.9403 31.1977 63.8358 31.0489C63.7313 30.8852 63.6715 30.7141 63.6566 30.5355C63.6566 30.3421 63.7014 30.1561 63.791 29.9775C63.8955 29.7989 64.0672 29.665 64.306 29.5757C64.9629 29.2632 65.6123 29.04 66.2542 28.906C66.8961 28.7721 67.5007 28.7051 68.068 28.7051C69.0683 28.7051 69.8893 28.8614 70.5313 29.1739C71.1881 29.4864 71.6733 29.9626 71.9868 30.6025C72.3003 31.2424 72.4571 32.0683 72.4571 33.0802V38.817C72.4571 39.1741 72.3675 39.4568 72.1884 39.6652C72.0092 39.8586 71.748 39.9554 71.4046 39.9554C71.0762 39.9554 70.8149 39.8586 70.6208 39.6652C70.4268 39.4568 70.3297 39.1741 70.3297 38.817V37.366H70.5313C70.4118 37.9166 70.1879 38.3928 69.8595 38.7946C69.546 39.1815 69.1504 39.4792 68.6727 39.6875C68.1949 39.8958 67.65 40 67.038 40Z" fill="#182C17"/>
<path d="M45.623 39.955C45.2796 39.955 45.0109 39.8583 44.8168 39.6648C44.6377 39.4714 44.5481 39.2035 44.5481 38.8612V24.9994C44.5481 24.6422 44.6451 24.3743 44.8392 24.1958C45.0333 24.0023 45.2945 23.9056 45.623 23.9056C45.9365 23.9056 46.1753 23.9651 46.3395 24.0842C46.5187 24.1883 46.6829 24.3818 46.8322 24.6645L52.6992 35.5799H52.005L57.8495 24.6645C57.9988 24.3818 58.1556 24.1883 58.3198 24.0842C58.484 23.9651 58.7229 23.9056 59.0364 23.9056C59.3648 23.9056 59.6186 24.0023 59.7977 24.1958C59.9769 24.3743 60.0665 24.6422 60.0665 24.9994V38.8612C60.0665 39.2035 59.9769 39.4714 59.7977 39.6648C59.6335 39.8583 59.3797 39.955 59.0364 39.955C58.693 39.955 58.4318 39.8583 58.2526 39.6648C58.0735 39.4714 57.9839 39.2035 57.9839 38.8612V27.3431H58.4766L53.2814 36.9192C53.1619 37.1425 53.035 37.3061 52.9007 37.4103C52.7663 37.5145 52.5797 37.5666 52.3409 37.5666C52.102 37.5666 51.9079 37.5145 51.7586 37.4103C51.6094 37.2913 51.475 37.1276 51.3556 36.9192L46.1156 27.3208H46.653V38.8612C46.653 39.2035 46.5635 39.4714 46.3843 39.6648C46.2201 39.8583 45.9663 39.955 45.623 39.955Z" fill="#182C17"/>
<path d="M73.7685 20.9117C72.5444 20.9117 71.477 20.681 70.5663 20.2197C69.6557 19.7584 68.9465 19.0962 68.439 18.2331C67.9314 17.3699 67.6776 16.3506 67.6776 15.175C67.6776 14.2821 67.8194 13.4859 68.1031 12.7865C68.3867 12.0722 68.7973 11.4695 69.3347 10.9784C69.8721 10.4725 70.5141 10.093 71.2605 9.84003C72.0069 9.57216 72.8429 9.43823 73.7685 9.43823C74.9927 9.43823 76.0601 9.66889 76.9707 10.1302C77.8814 10.5915 78.583 11.2537 79.0757 12.1169C79.5832 12.9651 79.837 13.9845 79.837 15.175C79.837 16.053 79.6952 16.8491 79.4116 17.5634C79.1279 18.2777 78.7174 18.8878 78.1799 19.3938C77.6574 19.8849 77.0155 20.2643 76.2541 20.5322C75.5077 20.7852 74.6792 20.9117 73.7685 20.9117ZM73.7685 17.9875C74.1716 17.9875 74.5299 17.8908 74.8434 17.6973C75.1569 17.489 75.3957 17.1839 75.56 16.7821C75.7391 16.3655 75.8287 15.8297 75.8287 15.175C75.8287 14.1779 75.6346 13.4636 75.2465 13.0321C74.8583 12.5856 74.3657 12.3624 73.7685 12.3624C73.3654 12.3624 73.0071 12.4591 72.6936 12.6526C72.3801 12.846 72.1338 13.1511 71.9547 13.5678C71.7755 13.9696 71.686 14.5053 71.686 15.175C71.686 16.1571 71.88 16.8714 72.2682 17.3179C72.6563 17.7643 73.1564 17.9875 73.7685 17.9875Z" fill="#182C17"/>
<path d="M63.1854 20.9117C61.9463 20.9117 60.864 20.681 59.9384 20.2197C59.0277 19.7584 58.3186 19.0962 57.811 18.2331C57.3035 17.3551 57.0497 16.3283 57.0497 15.1526C57.0497 14.2598 57.1915 13.4636 57.4751 12.7642C57.7588 12.0499 58.1693 11.4472 58.7068 10.9561C59.2591 10.465 59.9085 10.093 60.655 9.84003C61.4163 9.57216 62.2598 9.43823 63.1854 9.43823C63.6183 9.43823 64.0736 9.48288 64.5513 9.57216C65.0291 9.64657 65.5217 9.79538 66.0293 10.0186C66.3876 10.1525 66.6339 10.3609 66.7683 10.6436C66.9175 10.9115 66.9773 11.2017 66.9474 11.5142C66.9325 11.8267 66.8429 12.1094 66.6787 12.3624C66.5294 12.6154 66.3129 12.7865 66.0293 12.8758C65.7606 12.9651 65.4545 12.9279 65.1112 12.7642C64.8723 12.6451 64.6185 12.5633 64.3498 12.5187C64.096 12.4591 63.8497 12.4294 63.6108 12.4294C63.2078 12.4294 62.8495 12.4889 62.536 12.6079C62.2374 12.727 61.9836 12.9056 61.7746 13.1437C61.5656 13.3669 61.4014 13.6496 61.282 13.9919C61.1775 14.3342 61.1252 14.7211 61.1252 15.1526C61.1252 16.0157 61.3417 16.6928 61.7746 17.1839C62.2075 17.675 62.8196 17.9205 63.6108 17.9205C63.8497 17.9205 64.096 17.8982 64.3498 17.8536C64.6036 17.7941 64.8574 17.7048 65.1112 17.5857C65.4545 17.422 65.7606 17.3923 66.0293 17.4964C66.298 17.5857 66.5145 17.7569 66.6787 18.0098C66.8429 18.2628 66.9325 18.5456 66.9474 18.8581C66.9623 19.1557 66.8951 19.4459 66.7459 19.7286C66.5966 19.9965 66.3428 20.1974 65.9845 20.3313C65.4918 20.5545 65.0067 20.7033 64.5289 20.7777C64.0662 20.867 63.6183 20.9117 63.1854 20.9117Z" fill="#182C17"/>
<path d="M46.2499 20.6659C45.5483 20.6659 45.0109 20.4874 44.6377 20.1302C44.2794 19.7582 44.1002 19.2299 44.1002 18.5454V7.0496C44.1002 6.36506 44.2794 5.84421 44.6377 5.48706C45.0109 5.11503 45.5483 4.92902 46.2499 4.92902H53.8412C54.3786 4.92902 54.7817 5.06295 55.0504 5.33081C55.3191 5.59867 55.4535 5.98559 55.4535 6.49155C55.4535 7.01239 55.3191 7.41419 55.0504 7.69693C54.7817 7.96479 54.3786 8.09872 53.8412 8.09872H48.0414V11.0899H53.3485C53.871 11.0899 54.2667 11.2238 54.5354 11.4916C54.819 11.7595 54.9608 12.1539 54.9608 12.6747C54.9608 13.1956 54.819 13.5899 54.5354 13.8578C54.2667 14.1256 53.871 14.2596 53.3485 14.2596H48.0414V17.4962H53.8412C54.3786 17.4962 54.7817 17.6376 55.0504 17.9204C55.3191 18.1882 55.4535 18.5751 55.4535 19.0811C55.4535 19.6019 55.3191 19.9963 55.0504 20.2641C54.7817 20.532 54.3786 20.6659 53.8412 20.6659H46.2499Z" fill="#182C17"/>
<path d="M18.1121 32.84C16.1586 32.84 14.5693 34.4146 14.5693 36.3502C14.5693 38.2859 16.1586 39.8605 18.1121 39.8605C20.0657 39.8605 21.6549 38.2859 21.6549 36.3502C21.6549 34.4146 20.0657 32.84 18.1121 32.84ZM18.1121 37.8034C17.3024 37.8034 16.6456 37.1507 16.6456 36.3502C16.6456 35.5498 17.3043 34.8971 18.1121 34.8971C18.92 34.8971 19.5787 35.5498 19.5787 36.3502C19.5787 37.1507 18.92 37.8034 18.1121 37.8034Z" fill="#182C17"/>
<path d="M28.5745 32.84C26.621 32.84 25.0317 34.4146 25.0317 36.3502C25.0317 38.2859 26.621 39.8605 28.5745 39.8605C30.5281 39.8605 32.1173 38.2859 32.1173 36.3502C32.1173 34.4146 30.5281 32.84 28.5745 32.84ZM28.5745 37.8034C27.7648 37.8034 27.108 37.1507 27.108 36.3502C27.108 35.5498 27.7667 34.8971 28.5745 34.8971C29.3824 34.8971 30.0411 35.5498 30.0411 36.3502C30.0411 37.1507 29.3824 37.8034 28.5745 37.8034Z" fill="#182C17"/>
<path d="M35.5317 20.1903C34.9579 20.1903 34.4936 20.6503 34.4936 21.2189V27.8747H10.6963L6.0418 14.7949C5.89458 14.3834 5.50387 14.1085 5.0622 14.1085H1.03811C0.464318 14.1085 0 14.5686 0 15.1371C0 15.7056 0.464318 16.1657 1.03811 16.1657H4.32798L11.5664 36.5036C11.7174 36.9263 12.1176 37.19 12.546 37.19C12.6612 37.19 12.7763 37.1713 12.8914 37.1301C13.4313 36.9412 13.7163 36.354 13.5256 35.8173L11.4305 29.9282H34.4955V31.0222L32.7401 32.7615C32.3343 33.1635 32.3343 33.8144 32.7401 34.2164C32.9421 34.4165 33.2082 34.5175 33.4743 34.5175C33.7405 34.5175 34.0066 34.4165 34.2086 34.2164L36.2678 32.1761C36.4622 31.9835 36.5717 31.7216 36.5717 31.4486V21.2151C36.5717 20.6466 36.1074 20.1865 35.5336 20.1865L35.5317 20.1903Z" fill="#182C17"/>
<path d="M28.7953 10.5514V0C26.0169 0 23.7633 2.23297 23.7633 4.98584V15.5373C26.5417 15.5373 28.7953 13.3043 28.7953 10.5514Z" fill="#182C17"/>
<path d="M20.8283 15.5372H22.4685V13.9121C22.4685 10.903 20.0072 8.46429 16.9703 8.46429H15.3301V10.0895C15.3301 13.0985 17.7913 15.5372 20.8283 15.5372Z" fill="#182C17"/>
<path d="M23.0007 16.9286C18.2179 16.9286 14.3391 20.7718 14.3391 25.5108H31.6623C31.6623 20.7718 27.7836 16.9286 23.0007 16.9286Z" fill="#182C17"/>
</svg>
